<svg width="522" height="725" viewBox="0 0 522 725" fill="none" xmlns="http://www.w3.org/2000/svg">
<rect width="522" height="725" fill="#E5E5E5"/>
<g id="Group 1">
<path id="Luz2" d="M447.711 186.744C446.142 186.744 444.61 186.315 443.32 185.512C442.03 184.71 441.043 183.573 440.491 182.253C439.94 180.933 439.85 179.494 440.234 178.127C440.618 176.761 441.457 175.532 442.639 174.605L508.836 122.704C510.377 121.498 512.387 120.891 514.425 121.016C516.464 121.141 518.363 121.988 519.707 123.37C521.051 124.753 521.728 126.558 521.591 128.389C521.454 130.22 520.513 131.927 518.975 133.135L452.777 185.036C451.375 186.139 449.575 186.746 447.711 186.744V186.744Z" fill="#909090"/>
<path id="Vector" d="M233.423 692.358H323.252C323.252 700.804 319.516 708.905 312.866 714.878C306.217 720.851 297.198 724.206 287.793 724.206H268.882C259.478 724.206 250.459 720.851 243.809 714.878C237.159 708.905 233.423 700.804 233.423 692.358H233.423Z" fill="#3F3D56"/>
<path id="Vector_2" d="M344.241 621.052V591.455C344.241 555.693 387.545 521.866 415.636 497.733C455.232 463.734 476.047 418.057 476.047 364.548C476.046 317.537 455.291 272.444 418.332 239.156C381.373 205.867 331.227 187.101 278.886 186.97C226.546 186.839 176.284 205.355 139.119 238.458C101.954 271.561 80.9206 316.55 80.629 363.561C80.628 363.89 80.628 364.219 80.629 364.548C80.629 416.145 102.336 464.918 141.04 497.733C168.98 521.422 212.435 555.323 212.435 591.455V621.052" fill="white"/>
<path id="Vector_3" d="M344.241 625.206C343.634 625.206 343.032 625.098 342.471 624.89C341.91 624.681 341.4 624.375 340.971 623.989C340.541 623.603 340.201 623.145 339.968 622.641C339.736 622.137 339.616 621.597 339.616 621.052V591.455C339.616 556.664 377.818 524.185 405.712 500.471C408.027 498.502 410.277 496.588 412.439 494.732C451.026 461.598 471.422 416.582 471.422 364.549C471.422 267.301 386.61 191.123 278.338 191.123C278.157 191.123 277.975 191.123 277.793 191.123C226.84 191.174 177.982 209.344 141.902 241.659C105.821 273.975 85.4546 317.807 85.2539 363.572V364.54C85.2539 415.5 106.744 462.943 144.215 494.713C146.113 496.323 148.085 497.981 150.109 499.682C178.364 523.443 217.06 555.982 217.06 591.455V621.052C217.06 622.153 216.573 623.21 215.705 623.989C214.838 624.768 213.662 625.206 212.435 625.206C211.208 625.206 210.032 624.768 209.165 623.989C208.297 623.21 207.81 622.153 207.81 621.052V591.455C207.81 559.586 170.806 528.469 143.787 505.747C141.753 504.038 139.773 502.372 137.865 500.754C98.5517 467.421 76.0038 417.776 76.0038 364.549V363.552C76.3139 263.79 166.785 182.814 277.779 182.814C277.977 182.814 278.154 182.814 278.351 182.815C304.96 182.691 331.332 187.307 355.942 196.396C380.552 205.485 402.911 218.867 421.726 235.767C440.541 252.668 455.439 272.751 465.556 294.856C475.674 316.961 480.812 340.649 480.672 364.549C480.672 418.905 459.287 465.999 418.832 500.737C416.66 502.602 414.397 504.526 412.071 506.504C385.397 529.182 348.866 560.239 348.866 591.455V621.051C348.866 621.597 348.747 622.137 348.514 622.641C348.282 623.145 347.941 623.603 347.512 623.989C347.082 624.375 346.572 624.681 346.011 624.89C345.45 625.098 344.849 625.206 344.241 625.206Z" fill="#3F3D56"/>
<path id="Vector_4" d="M322.273 678.51H234.402C232.358 678.51 230.397 677.781 228.952 676.483C227.506 675.184 226.694 673.423 226.694 671.587C226.694 669.751 227.506 667.99 228.952 666.691C230.397 665.393 232.358 664.663 234.402 664.663H322.273C324.317 664.663 326.278 665.393 327.724 666.691C329.169 667.99 329.981 669.751 329.981 671.587C329.981 673.423 329.169 675.184 327.724 676.483C326.278 677.781 324.317 678.51 322.273 678.51V678.51Z" fill="#727274"/>
<path id="Luz" d="M73.9088 201.346C72.0453 201.347 70.2446 200.74 68.8426 199.638L2.64444 147.737C1.88079 147.139 1.25575 146.412 0.805082 145.597C0.354409 144.783 0.0869284 143.896 0.0179159 142.988C-0.0510966 142.081 0.0796988 141.17 0.402866 140.308C0.726032 139.445 1.23522 138.649 1.90131 137.964C2.5674 137.278 3.37734 136.718 4.28483 136.314C5.19231 135.909 6.17954 135.67 7.19011 135.609C8.20068 135.548 9.21477 135.666 10.1744 135.957C11.134 136.248 12.0203 136.706 12.7827 137.305L78.981 189.206C80.1632 190.133 81.0022 191.362 81.3859 192.729C81.7697 194.096 81.6798 195.535 81.1284 196.855C80.577 198.174 79.5904 199.311 78.3003 200.114C77.0102 200.916 75.4781 201.346 73.9089 201.346H73.9088Z" fill="#909090"/>
<path id="Vector_5" d="M344.241 653.936H212.435C210.391 653.936 208.43 653.206 206.984 651.908C205.539 650.61 204.727 648.849 204.727 647.012C204.727 645.176 205.539 643.415 206.984 642.117C208.43 640.818 210.391 640.089 212.435 640.089H344.241C346.286 640.089 348.246 640.818 349.692 642.117C351.137 643.415 351.95 645.176 351.95 647.012C351.95 648.849 351.137 650.61 349.692 651.908C348.246 653.206 346.286 653.936 344.241 653.936Z" fill="#727274"/>
<path id="Vector_6" d="M278.338 627.975C277.326 627.975 276.323 627.796 275.388 627.448C274.453 627.1 273.603 626.59 272.887 625.947C272.172 625.304 271.604 624.541 271.216 623.701C270.829 622.861 270.63 621.961 270.63 621.052V463.204C270.63 461.367 271.442 459.606 272.887 458.308C274.333 457.009 276.294 456.28 278.338 456.28C280.382 456.28 282.343 457.009 283.789 458.308C285.234 459.606 286.046 461.367 286.046 463.204V621.052C286.046 621.961 285.847 622.861 285.46 623.701C285.072 624.541 284.505 625.304 283.789 625.947C283.073 626.59 282.223 627.1 281.288 627.448C280.353 627.796 279.35 627.975 278.338 627.975V627.975Z" fill="#0D0D0D"/>
<path id="Vector_7" d="M278.338 470.127C253.432 470.127 222.853 449.889 221.564 449.028C220.752 448.485 220.066 447.804 219.547 447.023C219.028 446.243 218.685 445.378 218.538 444.479C218.391 443.579 218.443 442.662 218.69 441.781C218.938 440.899 219.376 440.07 219.98 439.34C220.584 438.611 221.343 437.995 222.212 437.529C223.081 437.063 224.043 436.755 225.045 436.622C226.046 436.49 227.067 436.537 228.049 436.759C229.03 436.981 229.954 437.375 230.766 437.918C238.427 443.023 261.916 456.28 278.338 456.28C294.761 456.28 318.249 443.023 325.914 437.915C326.727 437.372 327.65 436.979 328.632 436.757C329.613 436.535 330.634 436.489 331.636 436.621C332.637 436.754 333.6 437.062 334.469 437.529C335.337 437.995 336.096 438.611 336.7 439.34C337.303 440.07 337.741 440.9 337.989 441.781C338.236 442.663 338.287 443.58 338.14 444.479C337.992 445.379 337.649 446.244 337.13 447.024C336.61 447.804 335.925 448.485 335.112 449.028C333.823 449.889 303.244 470.127 278.338 470.127Z" fill="#0D0D0D"/>
<path id="Luz_2" d="M278.337 132.234C276.293 132.233 274.332 131.504 272.887 130.206C271.441 128.907 270.629 127.146 270.629 125.31V6.92358C270.629 5.08733 271.441 3.32629 272.887 2.02787C274.332 0.729446 276.293 0 278.337 0C280.382 0 282.342 0.729446 283.788 2.02787C285.234 3.32629 286.046 5.08733 286.046 6.92358V125.31C286.046 127.146 285.233 128.907 283.788 130.206C282.342 131.504 280.382 132.233 278.337 132.234V132.234Z" fill="#909090"/>
</g>
</svg>
